<?xml version="1.0" encoding="UTF-8" standalone="no"?>
<!DOCTYPE svg PUBLIC "-//W3C//DTD SVG 1.1//EN"
 "http://www.w3.org/Graphics/SVG/1.1/DTD/svg11.dtd">
<!-- Generated by graphviz version 2.38.0 (20140413.2041)
 -->
<!-- Title: models_diagram Pages: 1 -->
<svg width="895pt" height="158pt"
 viewBox="0.00 0.00 895.34 158.00" xmlns="http://www.w3.org/2000/svg" xmlns:xlink="http://www.w3.org/1999/xlink">
<g id="graph0" class="graph" transform="scale(1 1) rotate(0) translate(4 154)">
<title>models_diagram</title>
<polygon fill="none" stroke="none" points="-4,4 -4,-154 891.343,-154 891.343,4 -4,4"/>
<!-- _diagram_info -->
<g id="node1" class="node"><title>_diagram_info</title>
<text text-anchor="start" x="8" y="-135.6" font-family="Times,serif" font-size="13.00">Models diagram</text>
<text text-anchor="start" x="8" y="-121.6" font-family="Times,serif" font-size="13.00">Date: Sep 24 2017 &#45; 13:52</text>
<text text-anchor="start" x="8" y="-107.6" font-family="Times,serif" font-size="13.00">Migration version: 20170909231811</text>
<text text-anchor="start" x="8" y="-93.6" font-family="Times,serif" font-size="13.00">Generated by RailRoady 1.5.3</text>
<text text-anchor="start" x="8" y="-79.6" font-family="Times,serif" font-size="13.00">http://railroady.prestonlee.com</text>
</g>
<!-- Educational -->
<g id="node2" class="node"><title>Educational</title>
<ellipse fill="none" stroke="black" cx="589" cy="-111" rx="52.7911" ry="18"/>
<text text-anchor="middle" x="589" y="-107.3" font-family="Times,serif" font-size="14.00">Educational</text>
</g>
<!-- OperatingUnit -->
<g id="node6" class="node"><title>OperatingUnit</title>
<ellipse fill="none" stroke="black" cx="476" cy="-18" rx="61.99" ry="18"/>
<text text-anchor="middle" x="476" y="-14.3" font-family="Times,serif" font-size="14.00">OperatingUnit</text>
</g>
<!-- Educational&#45;&gt;OperatingUnit -->
<g id="edge2" class="edge"><title>Educational&#45;&gt;OperatingUnit</title>
<path fill="none" stroke="#27e32b" d="M563.009,-89.0688C544.922,-74.5036 520.878,-55.1407 502.649,-40.461"/>
<ellipse fill="none" stroke="#27e32b" cx="566.202" cy="-91.6401" rx="4.00002" ry="4.00002"/>
<ellipse fill="#27e32b" stroke="#27e32b" cx="499.334" cy="-37.791" rx="4.00002" ry="4.00002"/>
</g>
<!-- Participant -->
<g id="node7" class="node"><title>Participant</title>
<ellipse fill="none" stroke="black" cx="604" cy="-18" rx="48.9926" ry="18"/>
<text text-anchor="middle" x="604" y="-14.3" font-family="Times,serif" font-size="14.00">Participant</text>
</g>
<!-- Educational&#45;&gt;Participant -->
<g id="edge1" class="edge"><title>Educational&#45;&gt;Participant</title>
<path fill="none" stroke="#b362e8" d="M593.166,-84.7285C595.144,-72.7246 597.512,-58.3622 599.528,-46.1291"/>
<ellipse fill="none" stroke="#b362e8" cx="592.472" cy="-88.9369" rx="4.00001" ry="4.00001"/>
<polygon fill="#b362e8" stroke="#b362e8" points="599.565,-45.9065 605.631,-36.7716 600.378,-40.9731 601.191,-36.0397 601.191,-36.0397 601.191,-36.0397 600.378,-40.9731 596.751,-35.3077 599.565,-45.9065 599.565,-45.9065"/>
</g>
<!-- User -->
<g id="node3" class="node"><title>User</title>
<ellipse fill="none" stroke="black" cx="476" cy="-111" rx="27.0966" ry="18"/>
<text text-anchor="middle" x="476" y="-107.3" font-family="Times,serif" font-size="14.00">User</text>
</g>
<!-- User&#45;&gt;OperatingUnit -->
<g id="edge3" class="edge"><title>User&#45;&gt;OperatingUnit</title>
<path fill="none" stroke="#ad3e2d" d="M476,-84.7285C476,-72.1184 476,-56.9054 476,-44.2924"/>
<ellipse fill="none" stroke="#ad3e2d" cx="476" cy="-88.8836" rx="4" ry="4"/>
<ellipse fill="#ad3e2d" stroke="#ad3e2d" cx="476" cy="-40.0397" rx="4" ry="4"/>
</g>
<!-- Address -->
<g id="node4" class="node"><title>Address</title>
<ellipse fill="none" stroke="black" cx="230" cy="-18" rx="39.7935" ry="18"/>
<text text-anchor="middle" x="230" y="-14.3" font-family="Times,serif" font-size="14.00">Address</text>
</g>
<!-- Ability -->
<g id="node5" class="node"><title>Ability</title>
<polygon fill="none" stroke="black" points="714.5,-129 659.5,-129 659.5,-93 714.5,-93 714.5,-129"/>
<text text-anchor="middle" x="687" y="-107.3" font-family="Times,serif" font-size="14.00">Ability</text>
</g>
<!-- ApplicationRecord -->
<g id="node8" class="node"><title>ApplicationRecord</title>
<ellipse fill="none" stroke="black" cx="810" cy="-111" rx="77.1866" ry="18"/>
<text text-anchor="middle" x="810" y="-107.3" font-family="Times,serif" font-size="14.00">ApplicationRecord</text>
</g>
<!-- Donor -->
<g id="node9" class="node"><title>Donor</title>
<ellipse fill="none" stroke="black" cx="265" cy="-111" rx="33.2948" ry="18"/>
<text text-anchor="middle" x="265" y="-107.3" font-family="Times,serif" font-size="14.00">Donor</text>
</g>
<!-- Donor&#45;&gt;Address -->
<g id="edge4" class="edge"><title>Donor&#45;&gt;Address</title>
<path fill="none" stroke="#db5967" d="M255.593,-85.5428C250.592,-72.5382 244.459,-56.5923 239.45,-43.5707"/>
<ellipse fill="none" stroke="#db5967" cx="257.145" cy="-89.5758" rx="4.00001" ry="4.00001"/>
<ellipse fill="#db5967" stroke="#db5967" cx="237.933" cy="-39.6265" rx="4.00001" ry="4.00001"/>
</g>
<!-- Donor&#45;&gt;OperatingUnit -->
<g id="edge6" class="edge"><title>Donor&#45;&gt;OperatingUnit</title>
<path fill="none" stroke="#df34ed" d="M285.065,-88.628C291.598,-82.5966 299.19,-76.468 307,-72 327.059,-60.5238 381.826,-44.2523 423.627,-32.7731"/>
<ellipse fill="none" stroke="#df34ed" cx="281.795" cy="-91.784" rx="4.00002" ry="4.00002"/>
<ellipse fill="#df34ed" stroke="#df34ed" cx="427.676" cy="-31.6687" rx="4.00001" ry="4.00001"/>
</g>
<!-- Responsible -->
<g id="node11" class="node"><title>Responsible</title>
<ellipse fill="none" stroke="black" cx="342" cy="-18" rx="53.8905" ry="18"/>
<text text-anchor="middle" x="342" y="-14.3" font-family="Times,serif" font-size="14.00">Responsible</text>
</g>
<!-- Donor&#45;&gt;Responsible -->
<g id="edge5" class="edge"><title>Donor&#45;&gt;Responsible</title>
<path fill="none" stroke="#a7a41e" d="M283.583,-88.0385C295.426,-74.0415 310.74,-55.9432 322.717,-41.7886"/>
<ellipse fill="none" stroke="#a7a41e" cx="280.996" cy="-91.0955" rx="4.00002" ry="4.00002"/>
<ellipse fill="#a7a41e" stroke="#a7a41e" cx="325.377" cy="-38.6452" rx="4.00002" ry="4.00002"/>
</g>
<!-- Institution -->
<g id="node10" class="node"><title>Institution</title>
<ellipse fill="none" stroke="black" cx="363" cy="-111" rx="46.5926" ry="18"/>
<text text-anchor="middle" x="363" y="-107.3" font-family="Times,serif" font-size="14.00">Institution</text>
</g>
<!-- Institution&#45;&gt;Address -->
<g id="edge8" class="edge"><title>Institution&#45;&gt;Address</title>
<path fill="none" stroke="#a8a4d2" d="M334.286,-90.3534C311.617,-74.8435 280.182,-53.3351 257.764,-37.9963"/>
<ellipse fill="none" stroke="#a8a4d2" cx="337.737" cy="-92.7144" rx="4.00002" ry="4.00002"/>
<ellipse fill="#a8a4d2" stroke="#a8a4d2" cx="254.417" cy="-35.7063" rx="4.00002" ry="4.00002"/>
</g>
<!-- Institution&#45;&gt;OperatingUnit -->
<g id="edge9" class="edge"><title>Institution&#45;&gt;OperatingUnit</title>
<path fill="none" stroke="#5c9887" d="M388.501,-89.4635C406.686,-74.8191 431.076,-55.1779 449.485,-40.3525"/>
<ellipse fill="none" stroke="#5c9887" cx="385.284" cy="-92.0542" rx="4.00002" ry="4.00002"/>
<ellipse fill="#5c9887" stroke="#5c9887" cx="452.859" cy="-37.6354" rx="4.00002" ry="4.00002"/>
</g>
<!-- Institution&#45;&gt;Responsible -->
<g id="edge7" class="edge"><title>Institution&#45;&gt;Responsible</title>
<path fill="none" stroke="#04ec88" d="M357.168,-84.7285C354.398,-72.7246 351.084,-58.3622 348.261,-46.1291"/>
<ellipse fill="none" stroke="#04ec88" cx="358.151" cy="-88.986" rx="4.00001" ry="4.00001"/>
<polygon fill="#04ec88" stroke="#04ec88" points="348.181,-45.7836 350.317,-35.0278 347.057,-40.9116 345.932,-36.0397 345.932,-36.0397 345.932,-36.0397 347.057,-40.9116 341.547,-37.0516 348.181,-45.7836 348.181,-45.7836"/>
</g>
</g>
</svg>
