<?xml version="1.0" encoding="UTF-8" standalone="no"?>
<!DOCTYPE svg PUBLIC "-//W3C//DTD SVG 1.1//EN"
 "http://www.w3.org/Graphics/SVG/1.1/DTD/svg11.dtd">
<!-- Generated by graphviz version 2.38.0 (20140413.2041)
 -->
<!-- Title: models_diagram Pages: 1 -->
<svg width="1586pt" height="813pt"
 viewBox="0.00 0.00 1586.34 813.00" xmlns="http://www.w3.org/2000/svg" xmlns:xlink="http://www.w3.org/1999/xlink">
<g id="graph0" class="graph" transform="scale(1 1) rotate(0) translate(4 809)">
<title>models_diagram</title>
<polygon fill="none" stroke="none" points="-4,4 -4,-809 1582.34,-809 1582.34,4 -4,4"/>
<!-- _diagram_info -->
<g id="node1" class="node"><title>_diagram_info</title>
<text text-anchor="start" x="8" y="-558.6" font-family="Times,serif" font-size="13.00">Models diagram</text>
<text text-anchor="start" x="8" y="-544.6" font-family="Times,serif" font-size="13.00">Date: Sep 24 2017 &#45; 13:52</text>
<text text-anchor="start" x="8" y="-530.6" font-family="Times,serif" font-size="13.00">Migration version: 20170909231811</text>
<text text-anchor="start" x="8" y="-516.6" font-family="Times,serif" font-size="13.00">Generated by RailRoady 1.5.3</text>
<text text-anchor="start" x="8" y="-502.6" font-family="Times,serif" font-size="13.00">http://railroady.prestonlee.com</text>
</g>
<!-- Educational -->
<g id="node2" class="node"><title>Educational</title>
<path fill="none" stroke="black" d="M1100,-466C1100,-466 1320,-466 1320,-466 1326,-466 1332,-472 1332,-478 1332,-478 1332,-590 1332,-590 1332,-596 1326,-602 1320,-602 1320,-602 1100,-602 1100,-602 1094,-602 1088,-596 1088,-590 1088,-590 1088,-478 1088,-478 1088,-472 1094,-466 1100,-466"/>
<text text-anchor="middle" x="1210" y="-586.8" font-family="Times,serif" font-size="14.00">Educational</text>
<polyline fill="none" stroke="black" points="1088,-579 1332,-579 "/>
<text text-anchor="start" x="1096" y="-563.8" font-family="Times,serif" font-size="14.00">id :bigint</text>
<text text-anchor="start" x="1096" y="-548.8" font-family="Times,serif" font-size="14.00">subject_matter :character varying</text>
<text text-anchor="start" x="1096" y="-533.8" font-family="Times,serif" font-size="14.00">realisation_data :date</text>
<text text-anchor="start" x="1096" y="-518.8" font-family="Times,serif" font-size="14.00">facilitator :character varying</text>
<text text-anchor="start" x="1096" y="-503.8" font-family="Times,serif" font-size="14.00">technician :character varying</text>
<text text-anchor="start" x="1096" y="-488.8" font-family="Times,serif" font-size="14.00">created_at :timestamp without time zone</text>
<text text-anchor="start" x="1096" y="-473.8" font-family="Times,serif" font-size="14.00">updated_at :timestamp without time zone</text>
</g>
<!-- OperatingUnit -->
<g id="node6" class="node"><title>OperatingUnit</title>
<path fill="none" stroke="black" d="M786,-30.5C786,-30.5 1006,-30.5 1006,-30.5 1012,-30.5 1018,-36.5 1018,-42.5 1018,-42.5 1018,-184.5 1018,-184.5 1018,-190.5 1012,-196.5 1006,-196.5 1006,-196.5 786,-196.5 786,-196.5 780,-196.5 774,-190.5 774,-184.5 774,-184.5 774,-42.5 774,-42.5 774,-36.5 780,-30.5 786,-30.5"/>
<text text-anchor="middle" x="896" y="-181.3" font-family="Times,serif" font-size="14.00">OperatingUnit</text>
<polyline fill="none" stroke="black" points="774,-173.5 1018,-173.5 "/>
<text text-anchor="start" x="782" y="-158.3" font-family="Times,serif" font-size="14.00">id :bigint</text>
<text text-anchor="start" x="782" y="-143.3" font-family="Times,serif" font-size="14.00">name :character varying</text>
<text text-anchor="start" x="782" y="-128.3" font-family="Times,serif" font-size="14.00">uf :character varying</text>
<text text-anchor="start" x="782" y="-113.3" font-family="Times,serif" font-size="14.00">donor_id :integer</text>
<text text-anchor="start" x="782" y="-98.3" font-family="Times,serif" font-size="14.00">institution_id :integer</text>
<text text-anchor="start" x="782" y="-83.3" font-family="Times,serif" font-size="14.00">user_id :integer</text>
<text text-anchor="start" x="782" y="-68.3" font-family="Times,serif" font-size="14.00">educational_id :integer</text>
<text text-anchor="start" x="782" y="-53.3" font-family="Times,serif" font-size="14.00">created_at :timestamp without time zone</text>
<text text-anchor="start" x="782" y="-38.3" font-family="Times,serif" font-size="14.00">updated_at :timestamp without time zone</text>
</g>
<!-- Educational&#45;&gt;OperatingUnit -->
<g id="edge2" class="edge"><title>Educational&#45;&gt;OperatingUnit</title>
<path fill="none" stroke="#a5ac5c" d="M1183.58,-458.156C1161.11,-401.012 1125.01,-322.271 1078,-263 1060.82,-241.336 1039.97,-220.729 1018.6,-202.141"/>
<ellipse fill="none" stroke="#a5ac5c" cx="1185.08" cy="-461.992" rx="4.00001" ry="4.00001"/>
<ellipse fill="#a5ac5c" stroke="#a5ac5c" cx="1015.29" cy="-199.302" rx="4.00002" ry="4.00002"/>
</g>
<!-- Participant -->
<g id="node7" class="node"><title>Participant</title>
<path fill="none" stroke="black" d="M1100,-30.5C1100,-30.5 1320,-30.5 1320,-30.5 1326,-30.5 1332,-36.5 1332,-42.5 1332,-42.5 1332,-184.5 1332,-184.5 1332,-190.5 1326,-196.5 1320,-196.5 1320,-196.5 1100,-196.5 1100,-196.5 1094,-196.5 1088,-190.5 1088,-184.5 1088,-184.5 1088,-42.5 1088,-42.5 1088,-36.5 1094,-30.5 1100,-30.5"/>
<text text-anchor="middle" x="1210" y="-181.3" font-family="Times,serif" font-size="14.00">Participant</text>
<polyline fill="none" stroke="black" points="1088,-173.5 1332,-173.5 "/>
<text text-anchor="start" x="1096" y="-158.3" font-family="Times,serif" font-size="14.00">id :bigint</text>
<text text-anchor="start" x="1096" y="-143.3" font-family="Times,serif" font-size="14.00">name :character varying</text>
<text text-anchor="start" x="1096" y="-128.3" font-family="Times,serif" font-size="14.00">institution :character varying</text>
<text text-anchor="start" x="1096" y="-113.3" font-family="Times,serif" font-size="14.00">phone :character varying</text>
<text text-anchor="start" x="1096" y="-98.3" font-family="Times,serif" font-size="14.00">email :character varying</text>
<text text-anchor="start" x="1096" y="-83.3" font-family="Times,serif" font-size="14.00">educationl_id :integer</text>
<text text-anchor="start" x="1096" y="-68.3" font-family="Times,serif" font-size="14.00">educational_id :bigint</text>
<text text-anchor="start" x="1096" y="-53.3" font-family="Times,serif" font-size="14.00">created_at :timestamp without time zone</text>
<text text-anchor="start" x="1096" y="-38.3" font-family="Times,serif" font-size="14.00">updated_at :timestamp without time zone</text>
</g>
<!-- Educational&#45;&gt;Participant -->
<g id="edge1" class="edge"><title>Educational&#45;&gt;Participant</title>
<path fill="none" stroke="#b92b43" d="M1210,-457.429C1210,-387.175 1210,-282.338 1210,-207.086"/>
<ellipse fill="none" stroke="#b92b43" cx="1210" cy="-461.761" rx="4" ry="4"/>
<polygon fill="#b92b43" stroke="#b92b43" points="1210,-206.671 1214.5,-196.671 1210,-201.671 1210,-196.671 1210,-196.671 1210,-196.671 1210,-201.671 1205.5,-196.671 1210,-206.671 1210,-206.671"/>
</g>
<!-- User -->
<g id="node3" class="node"><title>User</title>
<path fill="none" stroke="black" d="M768.5,-376C768.5,-376 1057.5,-376 1057.5,-376 1063.5,-376 1069.5,-382 1069.5,-388 1069.5,-388 1069.5,-680 1069.5,-680 1069.5,-686 1063.5,-692 1057.5,-692 1057.5,-692 768.5,-692 768.5,-692 762.5,-692 756.5,-686 756.5,-680 756.5,-680 756.5,-388 756.5,-388 756.5,-382 762.5,-376 768.5,-376"/>
<text text-anchor="middle" x="913" y="-676.8" font-family="Times,serif" font-size="14.00">User</text>
<polyline fill="none" stroke="black" points="756.5,-669 1069.5,-669 "/>
<text text-anchor="start" x="764.5" y="-653.8" font-family="Times,serif" font-size="14.00">id :bigint</text>
<text text-anchor="start" x="764.5" y="-638.8" font-family="Times,serif" font-size="14.00">name :character varying</text>
<text text-anchor="start" x="764.5" y="-623.8" font-family="Times,serif" font-size="14.00">document :character varying</text>
<text text-anchor="start" x="764.5" y="-608.8" font-family="Times,serif" font-size="14.00">kind :integer</text>
<text text-anchor="start" x="764.5" y="-593.8" font-family="Times,serif" font-size="14.00">status :integer</text>
<text text-anchor="start" x="764.5" y="-578.8" font-family="Times,serif" font-size="14.00">notes :text</text>
<text text-anchor="start" x="764.5" y="-563.8" font-family="Times,serif" font-size="14.00">unit :integer</text>
<text text-anchor="start" x="764.5" y="-548.8" font-family="Times,serif" font-size="14.00">created_at :timestamp without time zone</text>
<text text-anchor="start" x="764.5" y="-533.8" font-family="Times,serif" font-size="14.00">updated_at :timestamp without time zone</text>
<text text-anchor="start" x="764.5" y="-518.8" font-family="Times,serif" font-size="14.00">email :character varying</text>
<text text-anchor="start" x="764.5" y="-503.8" font-family="Times,serif" font-size="14.00">encrypted_password :character varying</text>
<text text-anchor="start" x="764.5" y="-488.8" font-family="Times,serif" font-size="14.00">reset_password_token :character varying</text>
<text text-anchor="start" x="764.5" y="-473.8" font-family="Times,serif" font-size="14.00">reset_password_sent_at :timestamp without time zone</text>
<text text-anchor="start" x="764.5" y="-458.8" font-family="Times,serif" font-size="14.00">remember_created_at :timestamp without time zone</text>
<text text-anchor="start" x="764.5" y="-443.8" font-family="Times,serif" font-size="14.00">sign_in_count :integer</text>
<text text-anchor="start" x="764.5" y="-428.8" font-family="Times,serif" font-size="14.00">current_sign_in_at :timestamp without time zone</text>
<text text-anchor="start" x="764.5" y="-413.8" font-family="Times,serif" font-size="14.00">last_sign_in_at :timestamp without time zone</text>
<text text-anchor="start" x="764.5" y="-398.8" font-family="Times,serif" font-size="14.00">current_sign_in_ip :character varying</text>
<text text-anchor="start" x="764.5" y="-383.8" font-family="Times,serif" font-size="14.00">last_sign_in_ip :character varying</text>
</g>
<!-- User&#45;&gt;OperatingUnit -->
<g id="edge3" class="edge"><title>User&#45;&gt;OperatingUnit</title>
<path fill="none" stroke="#c6aa52" d="M906.286,-367.719C904.03,-312.174 901.598,-252.3 899.665,-204.725"/>
<ellipse fill="none" stroke="#c6aa52" cx="906.459" cy="-371.979" rx="4" ry="4"/>
<ellipse fill="#c6aa52" stroke="#c6aa52" cx="899.497" cy="-200.592" rx="4" ry="4"/>
</g>
<!-- Address -->
<g id="node4" class="node"><title>Address</title>
<path fill="none" stroke="black" d="M244,-0.5C244,-0.5 464,-0.5 464,-0.5 470,-0.5 476,-6.5 476,-12.5 476,-12.5 476,-214.5 476,-214.5 476,-220.5 470,-226.5 464,-226.5 464,-226.5 244,-226.5 244,-226.5 238,-226.5 232,-220.5 232,-214.5 232,-214.5 232,-12.5 232,-12.5 232,-6.5 238,-0.5 244,-0.5"/>
<text text-anchor="middle" x="354" y="-211.3" font-family="Times,serif" font-size="14.00">Address</text>
<polyline fill="none" stroke="black" points="232,-203.5 476,-203.5 "/>
<text text-anchor="start" x="240" y="-188.3" font-family="Times,serif" font-size="14.00">id :bigint</text>
<text text-anchor="start" x="240" y="-173.3" font-family="Times,serif" font-size="14.00">country :character varying</text>
<text text-anchor="start" x="240" y="-158.3" font-family="Times,serif" font-size="14.00">city :character varying</text>
<text text-anchor="start" x="240" y="-143.3" font-family="Times,serif" font-size="14.00">state :character varying</text>
<text text-anchor="start" x="240" y="-128.3" font-family="Times,serif" font-size="14.00">neighborhood :character varying</text>
<text text-anchor="start" x="240" y="-113.3" font-family="Times,serif" font-size="14.00">street :character varying</text>
<text text-anchor="start" x="240" y="-98.3" font-family="Times,serif" font-size="14.00">number :character varying</text>
<text text-anchor="start" x="240" y="-83.3" font-family="Times,serif" font-size="14.00">complement :character varying</text>
<text text-anchor="start" x="240" y="-68.3" font-family="Times,serif" font-size="14.00">zip_code :character varying</text>
<text text-anchor="start" x="240" y="-53.3" font-family="Times,serif" font-size="14.00">donor_id :integer</text>
<text text-anchor="start" x="240" y="-38.3" font-family="Times,serif" font-size="14.00">institution_id :integer</text>
<text text-anchor="start" x="240" y="-23.3" font-family="Times,serif" font-size="14.00">created_at :timestamp without time zone</text>
<text text-anchor="start" x="240" y="-8.3" font-family="Times,serif" font-size="14.00">updated_at :timestamp without time zone</text>
</g>
<!-- Ability -->
<g id="node5" class="node"><title>Ability</title>
<polygon fill="none" stroke="black" points="1350.5,-511 1350.5,-557 1405.5,-557 1405.5,-511 1350.5,-511"/>
<text text-anchor="middle" x="1378" y="-541.8" font-family="Times,serif" font-size="14.00">Ability</text>
<polyline fill="none" stroke="black" points="1350.5,-534 1405.5,-534 "/>
<text text-anchor="middle" x="1378" y="-518.8" font-family="Times,serif" font-size="14.00"> </text>
</g>
<!-- ApplicationRecord -->
<g id="node8" class="node"><title>ApplicationRecord</title>
<ellipse fill="none" stroke="black" cx="1501" cy="-534" rx="77.1866" ry="18"/>
<text text-anchor="middle" x="1501" y="-530.3" font-family="Times,serif" font-size="14.00">ApplicationRecord</text>
</g>
<!-- Donor -->
<g id="node9" class="node"><title>Donor</title>
<path fill="none" stroke="black" d="M244,-368.5C244,-368.5 464,-368.5 464,-368.5 470,-368.5 476,-374.5 476,-380.5 476,-380.5 476,-687.5 476,-687.5 476,-693.5 470,-699.5 464,-699.5 464,-699.5 244,-699.5 244,-699.5 238,-699.5 232,-693.5 232,-687.5 232,-687.5 232,-380.5 232,-380.5 232,-374.5 238,-368.5 244,-368.5"/>
<text text-anchor="middle" x="354" y="-684.3" font-family="Times,serif" font-size="14.00">Donor</text>
<polyline fill="none" stroke="black" points="232,-676.5 476,-676.5 "/>
<text text-anchor="start" x="240" y="-661.3" font-family="Times,serif" font-size="14.00">id :bigint</text>
<text text-anchor="start" x="240" y="-646.3" font-family="Times,serif" font-size="14.00">reason :character varying</text>
<text text-anchor="start" x="240" y="-631.3" font-family="Times,serif" font-size="14.00">fantasy :character varying</text>
<text text-anchor="start" x="240" y="-616.3" font-family="Times,serif" font-size="14.00">kind :integer</text>
<text text-anchor="start" x="240" y="-601.3" font-family="Times,serif" font-size="14.00">cnpj_number :character varying</text>
<text text-anchor="start" x="240" y="-586.3" font-family="Times,serif" font-size="14.00">cpf :character varying</text>
<text text-anchor="start" x="240" y="-571.3" font-family="Times,serif" font-size="14.00">registration_data :date</text>
<text text-anchor="start" x="240" y="-556.3" font-family="Times,serif" font-size="14.00">email :character varying</text>
<text text-anchor="start" x="240" y="-541.3" font-family="Times,serif" font-size="14.00">obs :text</text>
<text text-anchor="start" x="240" y="-526.3" font-family="Times,serif" font-size="14.00">phone :character varying</text>
<text text-anchor="start" x="240" y="-511.3" font-family="Times,serif" font-size="14.00">status :integer</text>
<text text-anchor="start" x="240" y="-496.3" font-family="Times,serif" font-size="14.00">disclosure :integer</text>
<text text-anchor="start" x="240" y="-481.3" font-family="Times,serif" font-size="14.00">kind_donor :character varying</text>
<text text-anchor="start" x="240" y="-466.3" font-family="Times,serif" font-size="14.00">donation :character varying</text>
<text text-anchor="start" x="240" y="-451.3" font-family="Times,serif" font-size="14.00">site :character varying</text>
<text text-anchor="start" x="240" y="-436.3" font-family="Times,serif" font-size="14.00">activity :character varying</text>
<text text-anchor="start" x="240" y="-421.3" font-family="Times,serif" font-size="14.00">address_id :integer</text>
<text text-anchor="start" x="240" y="-406.3" font-family="Times,serif" font-size="14.00">responsible_id :integer</text>
<text text-anchor="start" x="240" y="-391.3" font-family="Times,serif" font-size="14.00">created_at :timestamp without time zone</text>
<text text-anchor="start" x="240" y="-376.3" font-family="Times,serif" font-size="14.00">updated_at :timestamp without time zone</text>
</g>
<!-- Donor&#45;&gt;Address -->
<g id="edge4" class="edge"><title>Donor&#45;&gt;Address</title>
<path fill="none" stroke="#c3a823" d="M354,-360.4C354,-318.283 354,-274.121 354,-235.029"/>
<ellipse fill="none" stroke="#c3a823" cx="354" cy="-364.499" rx="4" ry="4"/>
<ellipse fill="#c3a823" stroke="#c3a823" cx="354" cy="-230.767" rx="4" ry="4"/>
</g>
<!-- Donor&#45;&gt;OperatingUnit -->
<g id="edge6" class="edge"><title>Donor&#45;&gt;OperatingUnit</title>
<path fill="none" stroke="#e32e1d" d="M406.506,-360.884C425.576,-323.378 451.102,-287.602 485,-263 580.126,-193.961 638.361,-271.864 747,-227 763.368,-220.241 779.535,-211.243 794.843,-201.27"/>
<ellipse fill="none" stroke="#e32e1d" cx="404.554" cy="-364.821" rx="4.00002" ry="4.00002"/>
<ellipse fill="#e32e1d" stroke="#e32e1d" cx="798.485" cy="-198.842" rx="4.00002" ry="4.00002"/>
</g>
<!-- Responsible -->
<g id="node11" class="node"><title>Responsible</title>
<path fill="none" stroke="black" d="M506,-15.5C506,-15.5 726,-15.5 726,-15.5 732,-15.5 738,-21.5 738,-27.5 738,-27.5 738,-199.5 738,-199.5 738,-205.5 732,-211.5 726,-211.5 726,-211.5 506,-211.5 506,-211.5 500,-211.5 494,-205.5 494,-199.5 494,-199.5 494,-27.5 494,-27.5 494,-21.5 500,-15.5 506,-15.5"/>
<text text-anchor="middle" x="616" y="-196.3" font-family="Times,serif" font-size="14.00">Responsible</text>
<polyline fill="none" stroke="black" points="494,-188.5 738,-188.5 "/>
<text text-anchor="start" x="502" y="-173.3" font-family="Times,serif" font-size="14.00">id :bigint</text>
<text text-anchor="start" x="502" y="-158.3" font-family="Times,serif" font-size="14.00">name :character varying</text>
<text text-anchor="start" x="502" y="-143.3" font-family="Times,serif" font-size="14.00">rg :character varying</text>
<text text-anchor="start" x="502" y="-128.3" font-family="Times,serif" font-size="14.00">cpf :character varying</text>
<text text-anchor="start" x="502" y="-113.3" font-family="Times,serif" font-size="14.00">function :character varying</text>
<text text-anchor="start" x="502" y="-98.3" font-family="Times,serif" font-size="14.00">phone :character varying</text>
<text text-anchor="start" x="502" y="-83.3" font-family="Times,serif" font-size="14.00">email :character varying</text>
<text text-anchor="start" x="502" y="-68.3" font-family="Times,serif" font-size="14.00">donor_id :integer</text>
<text text-anchor="start" x="502" y="-53.3" font-family="Times,serif" font-size="14.00">institution_id :integer</text>
<text text-anchor="start" x="502" y="-38.3" font-family="Times,serif" font-size="14.00">created_at :timestamp without time zone</text>
<text text-anchor="start" x="502" y="-23.3" font-family="Times,serif" font-size="14.00">updated_at :timestamp without time zone</text>
</g>
<!-- Donor&#45;&gt;Responsible -->
<g id="edge5" class="edge"><title>Donor&#45;&gt;Responsible</title>
<path fill="none" stroke="#adcaa7" d="M428.83,-360.875C445.736,-327.489 464.736,-293.443 485,-263 495.085,-247.85 506.6,-232.616 518.523,-217.98"/>
<ellipse fill="none" stroke="#adcaa7" cx="426.826" cy="-364.863" rx="4.00002" ry="4.00002"/>
<ellipse fill="#adcaa7" stroke="#adcaa7" cx="521.113" cy="-214.834" rx="4.00002" ry="4.00002"/>
</g>
<!-- Institution -->
<g id="node10" class="node"><title>Institution</title>
<path fill="none" stroke="black" d="M506,-263.5C506,-263.5 726,-263.5 726,-263.5 732,-263.5 738,-269.5 738,-275.5 738,-275.5 738,-792.5 738,-792.5 738,-798.5 732,-804.5 726,-804.5 726,-804.5 506,-804.5 506,-804.5 500,-804.5 494,-798.5 494,-792.5 494,-792.5 494,-275.5 494,-275.5 494,-269.5 500,-263.5 506,-263.5"/>
<text text-anchor="middle" x="616" y="-789.3" font-family="Times,serif" font-size="14.00">Institution</text>
<polyline fill="none" stroke="black" points="494,-781.5 738,-781.5 "/>
<text text-anchor="start" x="502" y="-766.3" font-family="Times,serif" font-size="14.00">id :bigint</text>
<text text-anchor="start" x="502" y="-751.3" font-family="Times,serif" font-size="14.00">status :integer</text>
<text text-anchor="start" x="502" y="-736.3" font-family="Times,serif" font-size="14.00">cooperation :integer</text>
<text text-anchor="start" x="502" y="-721.3" font-family="Times,serif" font-size="14.00">motive :character varying</text>
<text text-anchor="start" x="502" y="-706.3" font-family="Times,serif" font-size="14.00">reason :character varying</text>
<text text-anchor="start" x="502" y="-691.3" font-family="Times,serif" font-size="14.00">fantasy :character varying</text>
<text text-anchor="start" x="502" y="-676.3" font-family="Times,serif" font-size="14.00">cnpj :character varying</text>
<text text-anchor="start" x="502" y="-661.3" font-family="Times,serif" font-size="14.00">public :character varying</text>
<text text-anchor="start" x="502" y="-646.3" font-family="Times,serif" font-size="14.00">activity :character varying</text>
<text text-anchor="start" x="502" y="-631.3" font-family="Times,serif" font-size="14.00">genre :character varying</text>
<text text-anchor="start" x="502" y="-616.3" font-family="Times,serif" font-size="14.00">email :character varying</text>
<text text-anchor="start" x="502" y="-601.3" font-family="Times,serif" font-size="14.00">registration_date :date</text>
<text text-anchor="start" x="502" y="-586.3" font-family="Times,serif" font-size="14.00">obs :text</text>
<text text-anchor="start" x="502" y="-571.3" font-family="Times,serif" font-size="14.00">category :character varying</text>
<text text-anchor="start" x="502" y="-556.3" font-family="Times,serif" font-size="14.00">small_meals :integer</text>
<text text-anchor="start" x="502" y="-541.3" font-family="Times,serif" font-size="14.00">large_meals :integer</text>
<text text-anchor="start" x="502" y="-526.3" font-family="Times,serif" font-size="14.00">address_id :integer</text>
<text text-anchor="start" x="502" y="-511.3" font-family="Times,serif" font-size="14.00">withdrawal_id :integer</text>
<text text-anchor="start" x="502" y="-496.3" font-family="Times,serif" font-size="14.00">ageranger_id :integer</text>
<text text-anchor="start" x="502" y="-481.3" font-family="Times,serif" font-size="14.00">f0004 :integer</text>
<text text-anchor="start" x="502" y="-466.3" font-family="Times,serif" font-size="14.00">f0509 :integer</text>
<text text-anchor="start" x="502" y="-451.3" font-family="Times,serif" font-size="14.00">f1011 :integer</text>
<text text-anchor="start" x="502" y="-436.3" font-family="Times,serif" font-size="14.00">f1217 :integer</text>
<text text-anchor="start" x="502" y="-421.3" font-family="Times,serif" font-size="14.00">f1819 :integer</text>
<text text-anchor="start" x="502" y="-406.3" font-family="Times,serif" font-size="14.00">f2059 :integer</text>
<text text-anchor="start" x="502" y="-391.3" font-family="Times,serif" font-size="14.00">f6000 :integer</text>
<text text-anchor="start" x="502" y="-376.3" font-family="Times,serif" font-size="14.00">monday :integer</text>
<text text-anchor="start" x="502" y="-361.3" font-family="Times,serif" font-size="14.00">tuesday :integer</text>
<text text-anchor="start" x="502" y="-346.3" font-family="Times,serif" font-size="14.00">wednesday :integer</text>
<text text-anchor="start" x="502" y="-331.3" font-family="Times,serif" font-size="14.00">thursday :integer</text>
<text text-anchor="start" x="502" y="-316.3" font-family="Times,serif" font-size="14.00">friday :integer</text>
<text text-anchor="start" x="502" y="-301.3" font-family="Times,serif" font-size="14.00">sunday :integer</text>
<text text-anchor="start" x="502" y="-286.3" font-family="Times,serif" font-size="14.00">created_at :timestamp without time zone</text>
<text text-anchor="start" x="502" y="-271.3" font-family="Times,serif" font-size="14.00">updated_at :timestamp without time zone</text>
</g>
<!-- Institution&#45;&gt;Address -->
<g id="edge8" class="edge"><title>Institution&#45;&gt;Address</title>
<path fill="none" stroke="#10c34a" d="M489.418,-269.724C487.952,-267.465 486.48,-265.223 485,-263 478.359,-253.023 471.097,-243.009 463.506,-233.153"/>
<ellipse fill="none" stroke="#10c34a" cx="491.636" cy="-273.186" rx="4.00002" ry="4.00002"/>
<ellipse fill="#10c34a" stroke="#10c34a" cx="460.934" cy="-229.856" rx="4.00002" ry="4.00002"/>
</g>
<!-- Institution&#45;&gt;OperatingUnit -->
<g id="edge9" class="edge"><title>Institution&#45;&gt;OperatingUnit</title>
<path fill="none" stroke="#7ac676" d="M742.771,-269.017C744.172,-266.995 745.582,-264.989 747,-263 761.891,-242.115 779.827,-221.511 798.016,-202.608"/>
<ellipse fill="none" stroke="#7ac676" cx="740.291" cy="-272.651" rx="4.00002" ry="4.00002"/>
<ellipse fill="#7ac676" stroke="#7ac676" cx="800.877" cy="-199.665" rx="4.00002" ry="4.00002"/>
</g>
<!-- Institution&#45;&gt;Responsible -->
<g id="edge7" class="edge"><title>Institution&#45;&gt;Responsible</title>
<path fill="none" stroke="#6aa82e" d="M616,-254.824C616,-243.436 616,-232.354 616,-221.737"/>
<ellipse fill="none" stroke="#6aa82e" cx="616" cy="-259.226" rx="4" ry="4"/>
<polygon fill="#6aa82e" stroke="#6aa82e" points="616,-221.704 620.5,-211.704 616,-216.704 616,-211.704 616,-211.704 616,-211.704 616,-216.704 611.5,-211.704 616,-221.704 616,-221.704"/>
</g>
</g>
</svg>
